<?xml version="1.0" encoding="UTF-8"?>
<svg width="100" height="100" viewBox="0 0 100 100" xmlns="http://www.w3.org/2000/svg">
    <!-- Pixelated Heart Base -->
    <g fill="#ff69b4">
        <!-- Row 1 -->
        <rect x="30" y="20" width="10" height="10"/>
        <rect x="40" y="20" width="10" height="10"/>
        <rect x="60" y="20" width="10" height="10"/>
        <rect x="70" y="20" width="10" height="10"/>
        
        <!-- Row 2 -->
        <rect x="20" y="30" width="10" height="10"/>
        <rect x="30" y="30" width="10" height="10"/>
        <rect x="40" y="30" width="10" height="10"/>
        <rect x="50" y="30" width="10" height="10"/>
        <rect x="60" y="30" width="10" height="10"/>
        <rect x="70" y="30" width="10" height="10"/>
        <rect x="80" y="30" width="10" height="10"/>
        
        <!-- Row 3 -->
        <rect x="20" y="40" width="10" height="10"/>
        <rect x="30" y="40" width="10" height="10"/>
        <rect x="40" y="40" width="10" height="10"/>
        <rect x="50" y="40" width="10" height="10"/>
        <rect x="60" y="40" width="10" height="10"/>
        <rect x="70" y="40" width="10" height="10"/>
        <rect x="80" y="40" width="10" height="10"/>
        
        <!-- Row 4 -->
        <rect x="30" y="50" width="10" height="10"/>
        <rect x="40" y="50" width="10" height="10"/>
        <rect x="50" y="50" width="10" height="10"/>
        <rect x="60" y="50" width="10" height="10"/>
        <rect x="70" y="50" width="10" height="10"/>
        
        <!-- Row 5 -->
        <rect x="40" y="60" width="10" height="10"/>
        <rect x="50" y="60" width="10" height="10"/>
        <rect x="60" y="60" width="10" height="10"/>
        
        <!-- Row 6 -->
        <rect x="50" y="70" width="10" height="10"/>
    </g>

    <!-- Clock Elements -->
    <g stroke="#fff" fill="none" stroke-width="2">
        <!-- Clock Center -->
        <circle cx="50" cy="45" r="3" fill="#fff"/>
        
        <!-- Clock Hands -->
        <line x1="50" y1="45" x2="50" y2="30" stroke="#fff" stroke-width="2"/> <!-- Hour Hand -->
        <line x1="50" y1="45" x2="65" y2="45" stroke="#fff" stroke-width="2"/> <!-- Minute Hand -->
    </g>
</svg> 